<svg width="647" height="616" viewBox="0 0 647 616" fill="none" xmlns="http://www.w3.org/2000/svg">
<g clip-path="url(#clip0_1001_16047)">
<path d="M337.108 239.786C337.108 239.786 339.645 239.975 340.596 239.343C341.548 238.708 344.593 236.612 346.306 235.472C348.02 234.328 349.668 234.393 350.557 234.902C351.447 235.41 351.828 236.296 351.828 236.296C351.828 236.296 352.59 235.345 353.603 235.345C354.616 235.345 359.694 236.228 360.329 237.183C360.965 238.137 360.329 240.738 360.329 240.738C360.329 240.738 361.789 240.992 362.105 242.197C362.421 243.403 361.535 245.433 361.535 245.433C361.535 245.433 362.867 245.622 363.248 246.384C363.629 247.147 363.629 249.493 362.359 250.699C362.359 250.699 363.502 251.904 363.121 253.175C362.74 254.446 359.059 257.554 358.3 258.379C357.538 259.203 356.587 259.457 355.508 259.395C354.43 259.333 348.023 259.457 344.85 258.317C341.678 257.173 332.29 254.7 331.209 253.683C330.131 252.667 334.635 240.483 337.108 239.786Z" fill="#0A071E"/>
<path d="M362.359 250.702C362.359 250.702 363.502 251.907 363.121 253.178C362.896 253.921 361.541 255.299 360.3 256.479C361.079 255.156 361.847 253.853 362.043 253.527C362.469 252.813 362.092 251.767 361.424 251.575C360.756 251.386 355.525 250.529 354.619 250.529C353.714 250.529 350.052 252.575 350.052 252.575C350.052 252.575 353.336 250.004 354.287 249.767C355.238 249.529 360.948 250.575 360.948 250.575C360.948 250.575 361.567 250.288 362.186 249.385C362.805 248.48 362.711 246.863 362.186 246.433C361.662 246.006 356.619 245.576 354.811 245.56C353.004 245.544 352.336 245.56 352.336 245.56C352.336 245.56 353.241 244.814 353.906 244.719C354.57 244.625 360.899 245.146 360.899 245.146C361.137 244.765 361.469 242.481 360.899 241.911C360.329 241.34 355.238 240.483 354.714 240.483C354.189 240.483 352.007 241.578 352.007 241.578C352.062 243.018 352.199 244.96 352.336 245.56C352.495 246.257 351.922 247.971 350.147 247.655C350.147 247.655 351.541 247.339 351.512 245.56C351.479 243.784 351.004 239.467 351.036 238.007C351.069 236.547 350.245 235.658 349.388 235.563C348.531 235.469 342.202 240.34 340.538 240.672C339.499 240.881 337.417 240.773 336 240.663C336.394 240.197 336.772 239.88 337.111 239.783C337.111 239.783 339.649 239.972 340.6 239.34C341.551 238.704 344.596 236.609 346.31 235.469C348.023 234.325 349.671 234.39 350.561 234.898C351.45 235.407 351.831 236.293 351.831 236.293C351.831 236.293 351.958 239.499 351.991 240.926C351.994 241.125 352.004 241.344 352.01 241.578C352.01 241.578 353.147 240.245 353.958 239.864C354.766 239.483 359.717 240.389 359.717 240.389C359.717 240.389 360.049 238.105 359.717 237.58C359.385 237.055 355.958 236.436 354.626 236.296C353.294 236.153 351.834 236.296 351.834 236.296C351.834 236.296 352.596 235.345 353.61 235.345C354.623 235.345 359.701 236.228 360.336 237.183C360.971 238.137 360.336 240.737 360.336 240.737C360.336 240.737 361.795 240.992 362.111 242.197C362.427 243.403 361.541 245.433 361.541 245.433C361.541 245.433 362.873 245.622 363.255 246.384C363.636 247.147 363.636 249.493 362.365 250.698L362.359 250.702Z" fill="#FFF29C"/>
<path d="M284.779 227.707C284.779 227.707 291.251 240.972 297.306 244.625C303.362 248.277 331.499 255.13 331.499 255.13C331.499 255.13 336.88 252.246 337.938 247.535C338.997 242.823 338.323 238.114 338.323 238.114C338.323 238.114 328.424 235.325 323.714 233.5C319.004 231.676 312.007 227.727 309.355 226.765C309.355 226.765 304.974 216.869 301.417 213.696C297.86 210.522 284.3 222.568 284.779 227.707Z" fill="#AAAAAA"/>
<path d="M337.938 247.535C338.997 242.823 338.323 238.114 338.323 238.114C338.323 238.114 328.424 235.325 323.714 233.5C319.003 231.673 312.007 227.727 309.355 226.765C309.355 226.765 304.974 216.869 301.417 213.696C300.538 212.91 299.046 213.269 297.306 214.328C299.928 217.599 305.492 224.654 307.088 228.258C307.088 228.258 322.593 235.1 327.463 236.769C332.333 238.434 337.649 239.718 337.649 239.718C337.649 239.718 338.32 244.592 337.622 248.574C337.749 248.238 337.857 247.893 337.935 247.535H337.938Z" fill="#FFF29C"/>
<path d="M289.117 253.784C289.117 253.784 290.176 260.585 296.71 266.352C303.244 272.119 323.043 275.518 328.232 276.991C333.42 278.464 352.258 283.514 359.561 287.336C359.561 287.336 364.079 288.675 365.424 291.07C366.769 293.465 367.922 298.809 367.251 303.202C366.577 307.597 366.385 309.904 366.385 309.904C366.385 309.904 368.02 321.054 367.922 325.958C367.828 330.862 367.925 332.208 367.925 332.208C367.925 332.208 344.28 336.343 335.534 332.208C335.534 332.208 335.824 321.058 336.88 316.731C336.88 316.731 335.534 317.213 334.766 316.538C333.997 315.864 334.284 314.134 334.284 314.134C334.284 314.134 331.495 315.287 330.632 314.808C329.766 314.326 318.717 315.675 312.854 315.29C306.99 314.906 283.541 311.445 283.541 311.445C283.541 311.445 277.678 313.658 274.987 314.329C274.987 314.329 269.573 320.035 267.746 323.013C267.746 323.013 263.003 342.625 260.059 349.804C257.111 356.982 252.739 367.748 252.739 367.748V370.824C252.739 372.235 251.075 373.388 251.075 373.388C251.075 373.388 250.703 380.439 249.55 385.949C248.397 391.463 246.023 401.573 246.023 401.573C246.023 401.573 223.925 404.151 215.85 397.103C215.85 397.103 218.156 378.259 219.309 371.339C219.309 371.339 218.798 368.135 219.436 366.852C220.075 365.568 221.039 364.225 221.039 364.225C221.039 364.225 220.335 353.779 220.974 348.907C221.615 344.036 228.853 310.005 228.853 310.005L229.528 307.121C229.528 307.121 237.068 275.332 238.12 271.23C239.169 267.127 240.065 256.811 240.065 256.811C240.065 256.811 284.853 256.733 289.114 253.791L289.117 253.784Z" fill="#AAAAAA"/>
<path d="M356.036 288.398C359.368 289.47 362.059 291.067 363.909 294.557C365.333 297.242 365.326 305.831 364.557 308.653C363.886 311.119 366.671 320.836 365.385 332.606C366.974 332.374 367.925 332.208 367.925 332.208C367.925 332.208 367.824 330.862 367.922 325.958C368.02 321.054 366.385 309.904 366.385 309.904C366.385 309.904 366.577 307.597 367.251 303.202C367.925 298.806 366.769 293.465 365.424 291.07C364.079 288.675 359.561 287.336 359.561 287.336C352.258 283.517 333.42 278.467 328.231 276.991C323.043 275.518 303.244 272.119 296.71 266.352C296.71 266.352 303.375 272.761 311.062 275.58C318.749 278.398 347.342 285.596 356.039 288.398H356.036Z" fill="#FFF29C"/>
<path d="M250.453 365.692L245.391 363.352C245.391 363.352 250.58 367.487 250.772 368.448C250.964 369.409 250.388 371.524 248.945 372.775C248.945 372.775 246.681 392.688 243.984 401.756C245.267 401.658 246.026 401.567 246.026 401.567C246.026 401.567 248.401 391.456 249.554 385.943C250.707 380.429 251.078 373.382 251.078 373.382C251.078 373.382 252.743 372.228 252.743 370.817V367.741C252.743 367.741 257.114 356.975 260.062 349.797C263.01 342.619 267.749 323.006 267.749 323.006C269.577 320.025 274.99 314.322 274.99 314.322C274.99 314.322 270.476 317.991 265.831 321.11C265.831 321.11 260.694 345.056 250.453 365.688V365.692Z" fill="#FFF29C"/>
<path d="M343.622 304.964C343.622 304.964 336.518 311.181 335.805 310.468C333.88 308.542 340.114 299.001 340.114 299.001L329.567 308.633C329.567 308.633 323.652 310.171 318.652 310.008C314.746 309.885 299.391 307.666 291.886 305.238C289.788 304.56 284.352 293.035 284.352 293.035L282.059 308.907C281.785 311.201 274.987 314.319 274.987 314.319C277.678 313.648 283.541 311.436 283.541 311.436C283.541 311.436 306.99 314.896 312.854 315.28C318.717 315.665 329.769 314.319 330.632 314.798C331.499 315.281 334.284 314.124 334.284 314.124C334.284 314.124 333.994 315.854 334.766 316.528C335.534 317.203 336.88 316.721 336.88 316.721C335.821 321.048 335.534 332.198 335.534 332.198C336.704 332.752 338.14 333.153 339.749 333.44C338.857 327.695 339.381 316.297 339.381 314.316C339.381 311.911 343.626 304.958 343.626 304.958L343.622 304.964Z" fill="#0A071E"/>
<path d="M338.609 404.913C338.609 404.913 338.16 404.979 338.098 405.49C338.036 406.002 338.163 407.732 338.355 408.055C338.548 408.374 351.873 409.527 353.284 409.335C354.694 409.143 356.101 408.055 356.101 408.055C356.101 408.055 357.382 407.735 359.818 409.081C362.251 410.427 371.287 410.554 377.118 410.234C382.948 409.915 389.356 408.472 389.61 408.055C389.867 407.637 389.994 405.588 389.225 405.331C388.457 405.073 367.186 401.772 356.359 402.414C345.531 403.056 338.613 404.913 338.613 404.913H338.609Z" fill="#0A071E"/>
<path d="M337.583 349.028C337.583 349.028 338.095 376.588 338.609 379.534C338.609 379.534 337.199 382.482 338.098 383.763C338.997 385.044 339.636 385.558 339.636 385.558C339.636 385.558 339.124 387.481 338.609 392.479C338.095 397.478 338.352 404.464 338.609 404.913C338.867 405.363 349.437 407.155 353.473 406.709C353.473 406.709 355.714 404.529 356.036 404.467C356.355 404.402 358.277 406.406 359.238 406.78C360.199 407.158 367.44 408.054 372.883 408.054C378.326 408.054 388.515 406.517 389.157 405.94C389.799 405.363 390.245 398.761 388.58 397.031C386.916 395.301 380.378 394.213 378.714 394.213C377.049 394.213 371.027 391.104 368.782 389.117C366.541 387.129 363.209 384.02 363.209 384.02C363.209 384.02 363.912 382.163 363.401 381.137C362.89 380.11 361.864 379.182 361.864 379.182C361.864 379.182 363.453 356.467 363.584 349.546C363.584 349.546 340.274 345.949 337.583 349.028Z" fill="#0A071E"/>
<path d="M378.717 394.213C377.053 394.213 371.03 391.104 368.785 389.117C366.544 387.129 363.212 384.02 363.212 384.02C363.212 384.02 363.916 382.163 363.404 381.137C362.893 380.11 361.867 379.182 361.867 379.182C361.867 379.182 363.456 356.467 363.587 349.546C363.587 349.546 362.31 349.351 360.32 349.087L359.564 378.83C359.564 378.83 356.105 381.329 353.991 381.619C353.991 381.619 356.779 382.196 359.948 380.273C359.948 380.273 362.544 381.762 361.776 383.831L358.701 386.715C358.701 386.715 360.766 386.233 361.44 385.848C361.44 385.848 370.088 393.538 372.395 394.548C374.701 395.558 376.623 396.086 378.401 396.376C380.18 396.666 385.225 397.53 386.33 397.963C387.154 398.286 388.782 400.27 389.733 402.616C389.789 400.505 389.522 398.006 388.587 397.035C386.922 395.304 380.385 394.216 378.72 394.216L378.717 394.213Z" fill="#FFF29C"/>
<path d="M335.749 327.115C335.749 327.115 334.316 328.265 333.932 329.289C333.548 330.315 332.906 334.033 332.779 337.747C332.652 341.465 332.394 352.104 332.714 352.938C333.033 353.772 338.095 355.887 344.052 357.617C350.01 359.347 359.365 357.937 362.759 356.399C366.154 354.861 374.163 349.924 374.548 349.285C374.932 348.644 373.01 331.341 371.922 329.096C370.834 326.854 367.919 325.955 367.919 325.955C367.919 325.955 367.583 331.191 367.114 331.736C365.811 333.241 353.153 333.264 347.323 333.072C341.492 332.879 337.531 332.563 336.635 332.052C335.74 331.54 335.753 327.115 335.753 327.115H335.749Z" fill="#0A071E"/>
<path d="M366.74 354.303C370.284 352.287 374.284 349.735 374.554 349.285C374.939 348.644 373.017 331.341 371.929 329.096C370.841 326.854 367.925 325.955 367.925 325.955C367.925 325.955 367.59 331.191 367.121 331.736C365.919 333.127 355.059 333.251 348.805 333.111C348.805 333.111 357.45 334.544 367.74 332.847C368.925 332.651 369.079 328.598 369.079 328.598C369.079 328.598 370.759 329.416 371.049 330.041C371.339 330.667 373.114 348.308 373.114 348.692C373.114 348.943 369.629 351.931 366.743 354.303H366.74Z" fill="#FFF29C"/>
<path d="M212.15 474.263C212.15 474.263 211.368 475.478 211.306 476.185C211.241 476.889 210.856 480.541 211.306 482.083C211.755 483.621 212.267 485.416 213.228 486.631C214.189 487.85 225.335 490.991 227.195 491.183C229.052 491.376 245.104 488.042 246.528 486.954C247.951 485.866 247.313 482.34 246.159 481.633C245.006 480.926 214.726 473.497 212.15 474.266V474.263Z" fill="#0A071E"/>
<path d="M215.853 416.282C215.853 416.282 214.684 444.23 214.485 447.006C214.286 449.782 213.179 449.603 213.166 451.004C213.146 453.301 214.827 455.034 214.827 455.034C214.827 455.676 213.746 465.546 213.166 468.622C212.586 471.698 211.817 475.673 211.944 476.442C212.071 477.211 213.277 482.275 213.892 483.171C214.508 484.067 225.785 487.4 228.156 487.528C230.528 487.655 242.7 486.501 246.078 483.907C246.945 483.243 246.417 474.262 245.71 473.109C245.006 471.956 242.251 470.483 241.225 469.521C240.199 468.56 236.804 456.576 236.804 455.165C236.804 453.754 238.215 453.014 238.726 451.91C239.238 450.805 237.958 446.96 237.958 446.96C237.958 446.96 239.303 437.602 240.583 432.219C241.863 426.836 243.016 418.762 243.016 418.762C243.016 418.762 223.156 413.043 215.85 416.285L215.853 416.282Z" fill="#0A071E"/>
<path d="M246.078 483.904C246.945 483.239 246.417 474.259 245.71 473.106C245.006 471.952 242.251 470.479 241.225 469.518C240.199 468.557 236.804 456.572 236.804 455.162C236.804 453.751 238.215 453.011 238.726 451.906C239.238 450.802 237.958 446.957 237.958 446.957C237.958 446.957 239.303 437.599 240.583 432.216C241.863 426.833 243.016 418.755 243.016 418.755C243.016 418.755 241.26 418.25 238.606 417.624L235.456 446.696C235.456 446.696 236.866 448.746 236.609 450.157C236.352 451.568 234.912 453.523 234.814 454.484C234.72 455.445 239.202 469.29 238.785 469.675C238.785 469.675 236.446 469.098 232.026 469.675C232.026 469.675 239.713 471.02 241.348 471.887C242.808 472.659 243.345 481.555 242.896 485.367C244.231 484.944 245.352 484.458 246.072 483.904H246.078Z" fill="#FFF29C"/>
<path d="M216.541 391.583C216.541 391.583 216.303 395.816 216.814 396.712C217.326 397.608 227.485 402.274 243.889 400.844C245.606 400.694 247.508 395.164 247.508 395.164C247.508 395.164 249.857 396.516 250.625 397.432C251.394 398.348 251.85 417.875 251.218 418.693C249.039 421.512 236.801 425.295 233.342 425.295C229.883 425.295 219.166 423.18 216.482 421.577C213.801 419.974 211.107 414.975 211.238 414.079C211.365 413.183 212.967 394.982 213.928 393.763C214.889 392.544 216.537 391.583 216.537 391.583H216.541Z" fill="#0A071E"/>
<path d="M247.508 395.164C247.508 395.164 245.606 400.694 243.889 400.844C237.971 401.362 232.87 401.081 228.736 400.472C228.935 400.501 236.485 402.74 244.303 401.841C246.531 401.583 247.889 397.611 247.889 397.611C247.889 397.611 249.169 398.123 249.427 398.507C249.684 398.892 249.554 417.605 249.427 418.312C249.3 419.016 238.697 424.578 234.006 425.262C238.143 424.878 249.163 421.359 251.221 418.697C251.853 417.879 251.397 398.351 250.629 397.435C249.86 396.52 247.511 395.167 247.511 395.167L247.508 395.164Z" fill="#FFF29C"/>
<path d="M193.583 62.697C184.869 63.3975 177.808 63.9645 177.495 60.0935C177.182 56.2225 184.247 55.6523 192.961 54.9517C201.674 54.2511 230.062 51.4424 230.414 55.7891C230.762 60.1359 202.296 61.9964 193.583 62.697Z" fill="#5B1300"/>
<path d="M179.576 64.7889C176.909 65.0039 174.57 63.013 174.355 60.3411C174.14 57.6725 176.13 55.3329 178.801 55.1179C181.469 54.9028 183.808 56.8937 184.023 59.5656C184.238 62.2343 182.247 64.5738 179.576 64.7889Z" fill="#852D16"/>
<path d="M179.469 63.4366C177.547 63.5898 175.863 62.1561 175.71 60.2336C175.557 58.3111 176.99 56.6265 178.912 56.4734C180.834 56.3202 182.518 57.7539 182.671 59.6764C182.824 61.5989 181.391 63.2835 179.469 63.4366Z" fill="url(#paint0_radial_1001_16047)"/>
<path d="M215.801 74.0819C215.801 74.0819 216.762 70.5563 218.749 69.2105C220.736 67.8648 222.273 67.6074 223.619 66.2617C224.964 64.9159 224.195 62.7361 224.645 61.3252C225.094 59.9143 225.863 57.0957 226.502 55.1732C227.143 53.2508 225.86 50.4941 224.837 50.1096C223.811 49.7252 222.146 50.4941 222.146 50.4941C222.146 50.4941 220.482 46.5221 219.137 46.3299C217.791 46.1376 215.612 46.7144 215.42 47.0989C215.228 47.4834 215.101 48.5717 215.101 48.5717C215.101 48.5717 214.267 47.0337 213.052 46.7144C211.834 46.395 210.811 46.395 210.361 46.9066C209.912 47.4182 209.527 48.2523 209.527 48.2523C209.527 48.2523 208.055 46.7144 206.964 46.7144C205.873 46.7144 204.915 46.8414 204.466 47.3563C204.016 47.8679 203.57 49.471 203.57 49.471C203.57 49.471 202.225 48.4446 201.521 48.6368C200.817 48.8291 199.599 48.9562 199.407 49.3407C199.215 49.7252 198.231 51.9604 198.039 54.5248C198.039 54.5248 199.759 54.502 200.049 54.805C200.488 55.2645 200.433 57.288 201.394 58.3144C202.355 59.3408 203.443 58.8911 204.15 58.6337C204.856 58.3763 205.238 57.3531 205.238 57.3531C205.238 57.3531 205.749 58.5718 206.84 58.8259C207.928 59.0834 209.273 58.6989 209.596 58.4414C209.915 58.184 210.365 56.8383 210.365 56.8383C210.365 56.8383 210.941 58.184 211.71 58.3763C212.479 58.5685 213.697 58.3763 214.273 58.057C214.85 57.7376 215.169 56.9035 215.169 56.9035C215.169 56.9035 215.488 57.9918 216.387 58.5685C216.387 58.5685 213.57 59.3375 212.094 61.0026L197.902 62.3548C197.902 62.3548 197.869 65.1049 198.961 67.8616C200.049 70.6182 200.306 73.4367 200.306 73.4367C200.306 73.4367 212.671 74.9747 215.811 74.0786L215.801 74.0819Z" fill="#0A071E"/>
<path d="M226.501 55.1765C227.143 53.254 225.86 50.4974 224.837 50.1129C223.811 49.7284 222.146 50.4974 222.146 50.4974C222.146 50.4974 220.482 46.5254 219.137 46.3331C217.791 46.1409 215.612 46.7176 215.42 47.1021C215.228 47.4866 215.101 48.5749 215.101 48.5749C215.101 48.5749 214.267 47.037 213.052 46.7176C211.834 46.3983 210.811 46.3983 210.361 46.9099C209.912 47.4215 209.527 48.2556 209.527 48.2556C209.527 48.2556 208.055 46.7176 206.964 46.7176C205.873 46.7176 204.915 46.8447 204.466 47.3595C204.016 47.8711 203.57 49.4743 203.57 49.4743C203.57 49.4743 202.225 48.4479 201.521 48.6401C200.817 48.8324 199.599 48.9594 199.407 49.3439C199.27 49.6144 198.739 50.8167 198.371 52.4003C198.413 52.2635 199.41 49.95 199.814 49.761C200.221 49.5688 201.4 49.2559 201.977 49.2788C202.553 49.3016 203.322 49.7838 203.635 50.2628C203.948 50.745 204.668 54.3 204.668 54.3C204.668 54.3 204.042 50.0706 204.234 49.4938C204.426 48.9171 204.641 48.0275 204.98 47.7636C205.316 47.4997 206.902 47.2813 207.335 47.3302C207.769 47.3791 209.257 48.6043 209.426 48.891C209.596 49.1777 210.195 54.1077 210.195 54.1077C210.195 54.1077 209.834 49.0604 210.052 48.6271C210.267 48.1937 210.628 47.3302 210.843 47.1836C211.058 47.0402 212.909 47.1347 213.606 47.5192C214.303 47.9037 214.974 48.9399 215.049 49.2625C215.12 49.585 215.433 53.8373 215.433 53.8373C215.433 53.8373 215.648 48.1904 215.866 47.7343C216.081 47.2781 218.726 46.7242 219.254 46.8936C219.782 47.063 221.658 50.5789 221.658 50.5789C221.658 50.5789 219.628 52.3645 218.847 52.8044C217.309 53.6711 216.283 53.9188 215.775 54.098C214.883 54.414 214.57 55.7598 215.169 56.897C215.169 56.897 215.488 57.9853 216.387 58.562C216.387 58.562 215.433 56.431 215.531 55.8315C215.628 55.2319 215.651 54.8213 216.251 54.5574C216.85 54.2935 218.052 53.9318 219.374 53.2834C220.697 52.6349 222.208 51.0709 222.642 50.8786C223.075 50.6864 224.078 50.6636 224.668 50.8298C225.26 50.9992 226.15 53.329 226.124 54.1697C226.111 54.6389 225.896 56.3365 225.71 57.7409C225.977 56.8351 226.254 55.9292 226.508 55.1635L226.501 55.1765Z" fill="#FFF29C"/>
<path d="M225.427 34L222.029 34.8276L223.247 57.2456L226.124 78.9793L229.078 78.5297L225.427 34Z" fill="url(#paint1_linear_1001_16047)"/>
<path d="M223.247 57.2456L227.29 56.7178L225.427 34L222.029 34.8276L223.247 57.2456Z" fill="url(#paint2_linear_1001_16047)"/>
<path d="M226.124 78.9793L226.997 79.1162L229.775 78.8262L229.078 78.5296L226.124 78.9793Z" fill="#590808"/>
<path d="M225.427 34L229.078 78.5297L229.775 78.8262L228.945 62.3711L227.945 50.4323L226.111 34.2151L225.427 34Z" fill="url(#paint3_linear_1001_16047)"/>
<path d="M227.228 50.253C227.228 50.253 360.31 37.9101 365.704 37.7863C372.795 37.6201 389.225 37.9883 389.466 39.1744C389.704 40.3604 372.671 46.0692 366.066 46.5645C359.46 47.0565 228.127 60.794 228.127 60.794L227.228 50.2563V50.253Z" fill="#FFAF1D"/>
<path d="M371.326 40.7678L229.312 54.9191C228.918 54.9582 228.632 55.3101 228.671 55.7011C228.707 56.0693 229.019 56.3463 229.381 56.3463C229.404 56.3463 229.43 56.3463 229.453 56.343L371.466 42.1917C371.86 42.1526 372.147 41.8007 372.108 41.4097C372.069 41.0154 371.72 40.7287 371.326 40.7678Z" fill="#FFF29C"/>
<path d="M199.72 128.944C199.72 128.944 198.821 127.227 198.182 121.971C197.54 116.715 197.413 75.3658 198.439 72.6743C198.439 72.6743 208.69 68.7023 217.531 73.7008C217.531 73.7008 218.299 109.462 218.811 112.795C219.322 116.129 219.837 118.563 219.837 118.563C219.837 118.563 216.635 124.461 199.72 128.944Z" fill="#AAAAAA"/>
<path d="M219.837 118.559C219.837 118.559 219.326 116.125 218.811 112.792C218.296 109.459 217.531 73.6974 217.531 73.6974C212.71 70.9734 207.475 70.9147 203.707 71.4263C206.912 71.7619 211.521 72.5439 214.925 74.3621C214.925 74.3621 215.697 110.12 216.176 112.952C216.462 114.662 217.28 118.181 217.879 120.707C219.374 119.407 219.837 118.559 219.837 118.559Z" fill="#FFF29C"/>
<path d="M191.381 129.84C191.381 129.84 188.817 134.069 188.69 135.353C188.563 136.634 191.638 147.273 193.303 152.017C194.967 156.758 208.039 178.808 208.039 178.808C208.039 178.808 212.811 198.515 220.404 210.02C222.645 213.415 224.055 217.391 226.619 223.67C229.182 229.949 235.716 245.716 235.716 248.408C235.716 251.099 234.563 252.637 235.716 254.817C236.87 256.997 238.918 256.74 238.918 256.74C238.918 256.74 238.759 260.392 238.374 261.353C237.99 262.315 235.394 263.95 235.684 265.391C235.974 266.834 236.453 268.949 236.55 270.774C236.648 272.602 230.977 284.231 228.863 291.924C226.749 299.614 225.98 307.307 225.98 307.307L228.752 309.999L229.537 307.115C229.537 307.115 232.228 308.845 241.358 311.442C250.489 314.039 259.906 311.442 259.906 311.442C259.906 311.442 261.349 296.349 263.655 289.555C265.961 282.761 269.036 266.355 269.036 266.355C269.036 266.355 271.453 277.903 275.57 285.068C281.977 296.219 294.277 304.296 295.945 305.192C297.609 306.088 303.889 297.757 305.427 294.042C306.964 290.324 317.984 277.89 321.573 276.867C325.16 275.84 328.629 276.58 328.629 276.58C328.629 276.58 328.108 274.944 326.955 274.56C325.802 274.175 312.86 271.741 310.297 270.842C307.733 269.946 295.945 262.383 295.945 262.383C295.945 262.383 295.945 260.718 295.049 260.076C294.153 259.434 291.332 258.281 291.332 258.281L291.075 253.282C291.075 253.282 293.254 252.386 293.381 250.848C293.508 249.31 291.075 238.672 291.075 238.672C291.075 238.672 305.042 230.597 308.759 217.778C308.759 217.778 298.635 202.526 297.613 197.013C296.586 191.499 297.612 184.836 290.052 178.684C282.492 172.532 273.505 170.994 273.505 170.994C273.505 170.994 271.28 169.072 269.485 168.495C267.691 167.918 246.293 163.431 244.817 164.138C244.817 164.138 239.948 155.679 231.749 150.743C231.749 150.743 227.394 122.287 222.394 113.955C222.394 113.955 200.612 119.98 191.384 129.85L191.381 129.84Z" fill="#FFAF1D"/>
<path d="M326.948 274.557C325.795 274.172 312.854 271.738 310.29 270.839C307.727 269.943 295.938 262.38 295.938 262.38C295.938 262.38 295.938 260.715 295.042 260.073C294.147 259.431 291.326 258.278 291.326 258.278L291.068 253.279C291.068 253.279 293.248 252.383 293.375 250.845C293.502 249.307 291.068 238.668 291.068 238.668C290.697 233.689 291.805 227.805 293.824 220.115C295.844 212.425 294.593 202.04 293.824 198.87C293.055 195.696 292.095 190.506 292.095 190.506C292.095 190.506 292.479 196.178 292.863 200.118C293.248 204.061 293.922 210.597 292.381 218.769C291.244 224.81 288.73 232.132 288.73 235.4C288.73 238.668 290.749 248.378 290.557 249.532C290.508 249.832 289.339 252.129 285.753 252.768C283.72 253.129 276.336 253.664 276.336 253.664C276.336 253.664 269.176 257.365 266.87 257.799C264.563 258.232 259.326 256.212 259.326 256.212C259.326 256.212 250.896 257.248 248.384 257.166C252.016 257.28 256.068 257.342 259.326 257.222C259.326 257.222 263.075 258.76 266.821 258.568C270.57 258.375 274.798 255.684 275.085 255.684C275.332 255.684 284.277 254.827 289.117 253.787L289.984 258.903C294.124 259.737 295.13 263.706 295.13 263.706C295.13 263.706 307.648 271.451 309.668 272.123C311.687 272.797 322.446 274.905 322.446 274.905C322.446 274.905 318.626 275.303 314.583 279.428C311.577 282.497 304.974 290.676 303.437 294.521C301.899 298.366 298.218 304.078 298.215 304.085C300.746 301.794 304.316 296.72 305.424 294.042C306.961 290.324 317.981 277.89 321.57 276.867C325.157 275.84 328.626 276.58 328.626 276.58C328.626 276.58 328.104 274.944 326.951 274.56L326.948 274.557Z" fill="#FFF29C"/>
<path d="M254.039 179.573C248.912 172.395 245.71 166.885 245.71 166.885L245.889 164.07C245.345 164.041 244.967 164.057 244.814 164.129C244.814 164.129 239.945 155.67 231.746 150.733C231.746 150.733 227.391 122.277 222.391 113.945C222.391 113.945 217.589 115.275 211.54 117.702C211.544 117.702 220.599 115.705 221.56 115.611C221.56 115.611 228.736 144.907 229.026 152.118C229.026 152.118 240.241 159.932 243.378 168.775C243.378 168.775 249.026 173.418 257.176 184.692C256.238 182.933 255.189 181.177 254.046 179.573H254.039Z" fill="#FFF29C"/>
<path d="M296.134 198.384C296.616 201.076 306.994 218.091 306.994 218.091C306.994 218.091 304.697 225.211 299.062 232.52C302.873 228.926 306.981 223.888 308.756 217.772C308.756 217.772 298.632 202.519 297.609 197.006C296.583 191.493 297.609 184.829 290.049 178.677C282.489 172.526 273.502 170.988 273.502 170.988C273.502 170.988 272.075 169.756 270.586 168.971C270.586 168.971 272.436 170.61 273.107 171.91C273.107 171.91 283.834 175.777 289.792 181.085C295.749 186.393 295.655 195.699 296.134 198.391V198.384Z" fill="#FFF29C"/>
<path d="M259.902 311.439C259.902 311.439 261.345 296.346 263.651 289.552C265.958 282.758 269.033 266.352 269.033 266.352C269.033 266.352 264.805 283.527 262.368 289.167C259.935 294.808 258.059 305.932 257.775 309.48C257.775 309.48 247.479 312.951 229.534 307.112C229.534 307.112 232.225 308.842 241.355 311.439C250.485 314.036 259.902 311.439 259.902 311.439Z" fill="#FFF29C"/>
<path d="M238.918 256.74C238.918 256.74 251.443 257.509 259.326 257.222C259.326 257.222 263.075 258.76 266.821 258.568C270.57 258.375 274.798 255.684 275.085 255.684C275.371 255.684 287.355 254.53 291.069 253.279C291.069 253.279 292.336 256.622 291.326 258.278C291.326 258.278 278.642 264.527 268.645 264.527C258.648 264.527 243.179 263.276 238.371 261.353C238.371 261.353 237.537 258.757 238.915 256.74H238.918Z" fill="#0A071E"/>
<path d="M259.44 119.801C259.44 119.801 274.059 147.123 273.981 151.222C273.902 155.321 266.3 157.745 266.3 157.745L266.844 169.935C266.844 169.935 269.974 172.033 269.811 180.854C269.665 188.759 266.44 194.201 266.44 194.201C266.44 194.201 242.642 180.294 243.114 168.635C243.114 168.635 242.033 162.307 241.583 158.837C241.133 155.367 240.479 154.063 236.365 147.833C232.251 141.603 226.756 126.888 238.046 119.403C249.332 111.919 258.306 117.657 259.44 119.801Z" fill="#0A071E"/>
<path d="M273.981 151.222C273.964 152.154 273.557 152.995 272.941 153.744C269.971 148.775 256.173 127.207 256.173 127.207C258.544 126.37 260.658 125.119 261.837 124.353C265.981 132.303 274.039 148.175 273.981 151.222Z" fill="#FFAF1D"/>
<path d="M266.3 157.745L266.844 169.935C266.844 169.935 266.329 175.745 264.775 178.863L262.977 160.759C262.977 160.759 261.117 160.916 258.362 160.929C255.606 160.942 253.677 157.781 253.677 157.781C256.827 160.678 266.303 157.742 266.303 157.742L266.3 157.745Z" fill="#FFAF1D"/>
<path d="M258.436 122.056C258.436 122.056 254.225 121.114 251.394 123.463C248.563 125.813 249.658 129.039 251.241 131.697C252.827 134.356 255.098 136.513 254.655 139.58C254.212 142.649 252.622 147.908 253.544 151.29C254.469 154.673 254.225 157.361 251.795 158.853C249.365 160.346 248.694 161.584 248.967 163.386C248.967 163.386 246.41 162.376 245.873 160.251C245.335 158.127 245.616 156.784 245.616 156.784C245.616 156.784 243.967 162.714 238.769 163.197C238.769 163.197 239.99 159.436 239.694 158.149C239.397 156.862 237.98 157.156 235.844 154.937C233.707 152.718 234.28 149.394 233.726 148.104C233.173 146.813 230.205 144.386 229.482 141.935C228.759 139.485 227.697 134.532 228.589 131.215C229.485 127.898 228.749 126.539 231.508 122.616C234.267 118.693 240.3 114.701 244.283 114.134C248.267 113.568 255.296 114.662 256.941 115.813C258.586 116.963 260.469 121.756 260.469 121.756C260.469 121.756 259.73 120.958 259.254 120.694C258.779 120.43 258.427 122.056 258.427 122.056H258.436Z" fill="#FFF29C"/>
<path d="M239.7 158.153C239.404 156.866 237.987 157.159 235.85 154.94C233.713 152.721 234.287 149.397 233.733 148.107C233.179 146.817 230.212 144.389 229.489 141.939C228.765 139.488 227.703 134.536 228.596 131.218C229.492 127.901 228.756 126.543 231.515 122.619C234.274 118.696 240.306 114.705 244.29 114.138C248.274 113.571 255.303 114.666 256.948 115.816C256.948 115.816 249.316 114.692 244.365 115.679C238.87 116.774 233.896 121.896 232.179 124.685C230.462 127.475 230.41 130.166 230.609 133.376C230.804 136.585 229.006 140.094 234.208 146.647C235.651 148.465 234.899 150.828 235.7 152.636C236.502 154.445 239.756 155.083 240.303 156.696C240.85 158.309 240.085 161.564 238.772 163.206C238.772 163.206 239.993 159.446 239.697 158.159L239.7 158.153Z" fill="#FFAF1D"/>
<path d="M304.186 431.893L320.349 421.434L338.098 405.49L377.965 401.756L392.502 404.574L410.405 431.893L439.046 446.198L465.187 509.496L396.082 501.187L331.222 493.627L274.215 490.33L283.499 457.078L304.186 431.893Z" fill="#FFCA6A"/>
<mask id="mask0_1001_16047" style="mask-type:alpha" maskUnits="userSpaceOnUse" x="369" y="54" width="42" height="42">
<path d="M395.307 54.5992L394.578 61.8725C393.926 68.3778 397.554 74.5698 403.598 77.2661L410.355 80.2807L402.974 79.5608C396.373 78.9169 390.09 82.491 387.355 88.4461L384.298 95.1043L385.027 87.8309C385.679 81.3257 382.05 75.1337 376.007 72.4374L369.25 69.4227L376.631 70.1426C383.232 70.7865 389.515 67.2125 392.249 61.2574L395.307 54.5992Z" fill="white"/>
</mask>
<g mask="url(#mask0_1001_16047)">
<rect width="70.4533" height="43.7468" transform="matrix(-0.965878 -0.258996 0.258642 -0.965973 418.335 104.789)" fill="url(#paint4_radial_1001_16047)"/>
<rect width="70.4533" height="43.7468" transform="matrix(-0.965878 -0.258996 0.258642 -0.965973 418.335 104.789)" fill="url(#paint5_angular_1001_16047)" style="mix-blend-mode:screen"/>
</g>
<mask id="mask1_1001_16047" style="mask-type:alpha" maskUnits="userSpaceOnUse" x="135" y="97" width="27" height="27">
<path d="M143.52 97.1285L146.002 101.311C148.222 105.052 152.61 106.932 156.911 105.985L161.719 104.927L157.483 107.461C153.695 109.727 151.742 114.125 152.63 118.395L153.623 123.169L151.14 118.986C148.92 115.245 144.532 113.365 140.232 114.312L135.424 115.37L139.659 112.836C143.448 110.57 145.4 106.172 144.513 101.902L143.52 97.1285Z" fill="white"/>
</mask>
<g mask="url(#mask1_1001_16047)">
<rect width="46.886" height="29.1103" transform="matrix(-0.930766 0.365617 -0.365209 -0.930926 175.67 114.893)" fill="url(#paint6_radial_1001_16047)"/>
<rect width="46.886" height="29.1103" transform="matrix(-0.930766 0.365617 -0.365209 -0.930926 175.67 114.893)" fill="url(#paint7_angular_1001_16047)" style="mix-blend-mode:screen"/>
</g>
<mask id="mask2_1001_16047" style="mask-type:alpha" maskUnits="userSpaceOnUse" x="310" y="70" width="12" height="11">
<path d="M312.26 70.0964L313.955 71.68C315.471 73.0965 317.732 73.3713 319.575 72.3633L321.636 71.2363L320.034 72.9624C318.602 74.5063 318.295 76.7812 319.272 78.6179L320.364 80.6716L318.668 79.0879C317.152 77.6715 314.892 77.3966 313.049 78.4046L310.988 79.5316L312.59 77.8055C314.022 76.2617 314.329 73.9868 313.352 72.15L312.26 70.0964Z" fill="white"/>
</mask>
<g mask="url(#mask2_1001_16047)">
<rect width="22.3677" height="13.886" transform="matrix(-0.791137 0.611639 -0.611249 -0.791438 329.356 73.9362)" fill="url(#paint8_radial_1001_16047)"/>
<rect width="22.3677" height="13.886" transform="matrix(-0.791137 0.611639 -0.611249 -0.791438 329.356 73.9362)" fill="url(#paint9_angular_1001_16047)" style="mix-blend-mode:screen"/>
</g>
<g clip-path="url(#clip1_1001_16047)">
<path d="M253.117 102.696L256.921 115.85C252.878 116.117 247.854 117.469 242.745 119.859C237.637 122.249 233.383 125.233 230.583 128.167L222.932 116.817L229.624 119.246L229.387 121.892L230.625 122.319C231.914 122.762 233.207 121.916 233.352 120.528L233.387 120.203C233.476 119.385 233.132 118.555 232.492 118.031L230.347 116.272L230.418 112.17L234.179 114.084L234.606 116.499C234.764 117.392 235.397 118.138 236.225 118.408C237.734 118.898 239.14 117.643 238.908 116.012L238.554 113.519L231.98 107.909L234.011 101.17L240.485 103.93L240.573 112.574L242.259 114.444C243.361 115.668 245.222 115.396 245.816 113.921C246.14 113.112 245.974 112.147 245.39 111.454L243.812 109.577L244.755 105.463L247.947 108.039L247.92 110.813C247.913 111.641 248.328 112.437 249.01 112.894L249.282 113.076C250.442 113.853 251.917 113.405 252.407 112.129L252.873 110.905L250.692 109.39L253.117 102.696Z" fill="#FFAF1D"/>
</g>
<path d="M352.729 459.457L251.501 465.106L181.706 456.675L154.536 478.132L122.633 530.188L-5.72738e-06 623.625L152.682 626.109L431.985 620.425L671.403 624.319L534.569 564.557L500.318 518.002L427.861 498.846L352.729 459.457Z" fill="#FFAF1D"/>
</g>
<defs>
<radialGradient id="paint0_radial_1001_16047" cx="0" cy="0" r="1" gradientUnits="userSpaceOnUse" gradientTransform="translate(177.85 59.2104) scale(4.48212 4.48359)">
<stop stop-color="#FC8012"/>
<stop offset="0.01" stop-color="#F97E12"/>
<stop offset="0.23" stop-color="#D06113"/>
<stop offset="0.44" stop-color="#B04B15"/>
<stop offset="0.64" stop-color="#993B16"/>
<stop offset="0.83" stop-color="#8B3116"/>
<stop offset="1" stop-color="#872E17"/>
</radialGradient>
<linearGradient id="paint1_linear_1001_16047" x1="225.313" y1="53.0716" x2="228.862" y2="79.3603" gradientUnits="userSpaceOnUse">
<stop stop-color="#590808"/>
<stop offset="1" stop-color="#872E17"/>
</linearGradient>
<linearGradient id="paint2_linear_1001_16047" x1="224.472" y1="33.8631" x2="224.85" y2="57.8289" gradientUnits="userSpaceOnUse">
<stop stop-color="#590808"/>
<stop offset="0.17" stop-color="#5E0B08"/>
<stop offset="0.37" stop-color="#6C1509"/>
<stop offset="0.59" stop-color="#85250B"/>
<stop offset="0.82" stop-color="#A63C0D"/>
<stop offset="1" stop-color="#C75210"/>
</linearGradient>
<linearGradient id="paint3_linear_1001_16047" x1="227.042" y1="50.0771" x2="228.251" y2="61.9246" gradientUnits="userSpaceOnUse">
<stop stop-color="#C75210"/>
<stop offset="0.2" stop-color="#C34F0F"/>
<stop offset="0.39" stop-color="#B7470E"/>
<stop offset="0.57" stop-color="#A43A0D"/>
<stop offset="0.76" stop-color="#88280B"/>
<stop offset="0.94" stop-color="#661008"/>
<stop offset="1" stop-color="#590808"/>
</linearGradient>
<radialGradient id="paint4_radial_1001_16047" cx="0" cy="0" r="1" gradientUnits="userSpaceOnUse" gradientTransform="translate(-8.06148e-07 0.037335) rotate(31.8156) scale(82.9108 61.1735)">
<stop offset="0.0760668" stop-color="#071B3A"/>
<stop offset="0.351413" stop-color="#4B6283"/>
<stop offset="0.634538" stop-color="#FBDFFD"/>
<stop offset="1" stop-color="white"/>
</radialGradient>
<radialGradient id="paint5_angular_1001_16047" cx="0" cy="0" r="1" gradientUnits="userSpaceOnUse" gradientTransform="translate(35.2267 21.8734) rotate(90) scale(21.8734 35.2267)">
<stop offset="0.110186" stop-color="#1B192D"/>
<stop offset="0.38305" stop-color="white"/>
<stop offset="0.613985" stop-color="#1B192D"/>
<stop offset="0.893207" stop-color="white"/>
</radialGradient>
<radialGradient id="paint6_radial_1001_16047" cx="0" cy="0" r="1" gradientUnits="userSpaceOnUse" gradientTransform="translate(-5.36483e-07 0.0248437) rotate(31.8132) scale(55.1748 40.7075)">
<stop offset="0.0760668" stop-color="#071B3A"/>
<stop offset="0.351413" stop-color="#4B6283"/>
<stop offset="0.634538" stop-color="#FBDFFD"/>
<stop offset="1" stop-color="white"/>
</radialGradient>
<radialGradient id="paint7_angular_1001_16047" cx="0" cy="0" r="1" gradientUnits="userSpaceOnUse" gradientTransform="translate(23.443 14.5551) rotate(90) scale(14.5551 23.443)">
<stop offset="0.110186" stop-color="#1B192D"/>
<stop offset="0.38305" stop-color="white"/>
<stop offset="0.613985" stop-color="#1B192D"/>
<stop offset="0.893207" stop-color="white"/>
</radialGradient>
<radialGradient id="paint8_radial_1001_16047" cx="0" cy="0" r="1" gradientUnits="userSpaceOnUse" gradientTransform="translate(-2.55937e-07 0.0118508) rotate(31.8104) scale(26.3212 19.4186)">
<stop offset="0.0760668" stop-color="#071B3A"/>
<stop offset="0.351413" stop-color="#4B6283"/>
<stop offset="0.634538" stop-color="#FBDFFD"/>
<stop offset="1" stop-color="white"/>
</radialGradient>
<radialGradient id="paint9_angular_1001_16047" cx="0" cy="0" r="1" gradientUnits="userSpaceOnUse" gradientTransform="translate(11.1838 6.94301) rotate(90) scale(6.94301 11.1838)">
<stop offset="0.110186" stop-color="#1B192D"/>
<stop offset="0.38305" stop-color="white"/>
<stop offset="0.613985" stop-color="#1B192D"/>
<stop offset="0.893207" stop-color="white"/>
</radialGradient>
<clipPath id="clip0_1001_16047">
<rect width="647" height="616" fill="white"/>
</clipPath>
<clipPath id="clip1_1001_16047">
<rect width="33.3246" height="26.3528" fill="white" transform="matrix(0.905784 -0.423739 0.423396 0.905945 218.919 108.231)"/>
</clipPath>
</defs>
</svg>
